<svg id="visual" viewBox="0 0 600 900" width="600" height="900" xmlns="http://www.w3.org/2000/svg" xmlns:xlink="http://www.w3.org/1999/xlink" version="1.1"><rect x="0" y="0" width="600" height="900" fill="#004643"></rect><path d="M0 168L20 167C40 166 80 164 120 163.5C160 163 200 164 240 169.8C280 175.7 320 186.3 360 194.3C400 202.3 440 207.7 480 207C520 206.3 560 199.7 580 196.3L600 193L600 0L580 0C560 0 520 0 480 0C440 0 400 0 360 0C320 0 280 0 240 0C200 0 160 0 120 0C80 0 40 0 20 0L0 0Z" fill="#e8e4e6" stroke-linecap="round" stroke-linejoin="miter"></path></svg>